<svg
  width="201"
  height="39"
  viewBox="0 0 201 39"
  fill="none"
  xmlns="http://www.w3.org/2000/svg"
>
<path
    d="M192 22.6C191.475 22.6 190.95 22.3975 190.553 22L185.663 17.11C185.445 16.8925 185.445 16.5325 185.663 16.315C185.88 16.0975 186.24 16.0975 186.458 16.315L191.348 21.205C191.708 21.565 192.293 21.565 192.653 21.205L197.543 16.315C197.76 16.0975 198.12 16.0975 198.338 16.315C198.555 16.5325 198.555 16.8925 198.338 17.11L193.448 22C193.05 22.3975 192.525 22.6 192 22.6Z"
    fill="#292D32"
  />
<path
    d="M2.15199 15H0.674716L4.94744 3.36364H6.40199L10.6747 15H9.19744L5.72017 5.20455H5.62926L2.15199 15ZM2.69744 10.4545H8.65199V11.7045H2.69744V10.4545ZM13.6463 9.75V15H12.3054V6.27273H13.6009V7.63636H13.7145C13.919 7.19318 14.2296 6.83712 14.6463 6.56818C15.063 6.29545 15.6009 6.15909 16.2599 6.15909C16.8509 6.15909 17.3679 6.2803 17.8111 6.52273C18.2543 6.76136 18.599 7.125 18.8452 7.61364C19.0914 8.09848 19.2145 8.71212 19.2145 9.45455V15H17.8736V9.54545C17.8736 8.85985 17.6955 8.32576 17.3395 7.94318C16.9834 7.55682 16.4948 7.36364 15.8736 7.36364C15.4455 7.36364 15.063 7.45644 14.7259 7.64205C14.3925 7.82765 14.1293 8.09848 13.9361 8.45455C13.7429 8.81061 13.6463 9.24242 13.6463 9.75ZM21.6648 15V6.27273H23.0057V15H21.6648ZM22.3466 4.81818C22.0852 4.81818 21.8598 4.72917 21.6705 4.55114C21.4848 4.37311 21.392 4.15909 21.392 3.90909C21.392 3.65909 21.4848 3.44508 21.6705 3.26705C21.8598 3.08902 22.0852 3 22.3466 3C22.608 3 22.8314 3.08902 23.017 3.26705C23.2064 3.44508 23.3011 3.65909 23.3011 3.90909C23.3011 4.15909 23.2064 4.37311 23.017 4.55114C22.8314 4.72917 22.608 4.81818 22.3466 4.81818ZM25.4616 15V6.27273H26.7571V7.63636H26.8707C27.0526 7.17045 27.3461 6.80871 27.7514 6.55114C28.1567 6.28977 28.6435 6.15909 29.2116 6.15909C29.7874 6.15909 30.2666 6.28977 30.6491 6.55114C31.0355 6.80871 31.3366 7.17045 31.5526 7.63636H31.6435C31.867 7.18561 32.2022 6.82765 32.6491 6.5625C33.0961 6.29356 33.6321 6.15909 34.2571 6.15909C35.0374 6.15909 35.6757 6.40341 36.1719 6.89205C36.6681 7.37689 36.9162 8.13258 36.9162 9.15909V15H35.5753V9.15909C35.5753 8.51515 35.3991 8.05492 35.0469 7.77841C34.6946 7.50189 34.2798 7.36364 33.8026 7.36364C33.1889 7.36364 32.7135 7.54924 32.3764 7.92045C32.0393 8.28788 31.8707 8.75379 31.8707 9.31818V15H30.5071V9.02273C30.5071 8.52652 30.3461 8.12689 30.0241 7.82386C29.7022 7.51705 29.2874 7.36364 28.7798 7.36364C28.4313 7.36364 28.1056 7.45644 27.8026 7.64205C27.5033 7.82765 27.2609 8.08523 27.0753 8.41477C26.8935 8.74053 26.8026 9.11742 26.8026 9.54545V15H25.4616ZM41.9361 15.2045C41.383 15.2045 40.8812 15.1004 40.4304 14.892C39.9796 14.6799 39.6217 14.375 39.3565 13.9773C39.0914 13.5758 38.9588 13.0909 38.9588 12.5227C38.9588 12.0227 39.0573 11.6174 39.2543 11.3068C39.4512 10.9924 39.7145 10.7462 40.044 10.5682C40.3736 10.3902 40.7372 10.2576 41.1349 10.1705C41.5365 10.0795 41.9399 10.0076 42.3452 9.95455C42.8755 9.88636 43.3054 9.83523 43.6349 9.80114C43.9683 9.76326 44.2107 9.70076 44.3622 9.61364C44.5175 9.52652 44.5952 9.375 44.5952 9.15909V9.11364C44.5952 8.55303 44.4418 8.11742 44.1349 7.80682C43.8319 7.49621 43.3717 7.34091 42.7543 7.34091C42.1141 7.34091 41.6122 7.48106 41.2486 7.76136C40.8849 8.04167 40.6293 8.34091 40.4815 8.65909L39.2088 8.20455C39.4361 7.67424 39.7391 7.26136 40.1179 6.96591C40.5005 6.66667 40.9171 6.45833 41.3679 6.34091C41.8224 6.2197 42.2694 6.15909 42.7088 6.15909C42.9891 6.15909 43.3111 6.19318 43.6747 6.26136C44.0421 6.32576 44.3963 6.46023 44.7372 6.66477C45.0819 6.86932 45.3679 7.17803 45.5952 7.59091C45.8224 8.00379 45.9361 8.55682 45.9361 9.25V15H44.5952V13.8182H44.527C44.4361 14.0076 44.2846 14.2102 44.0724 14.4261C43.8603 14.642 43.5781 14.8258 43.2259 14.9773C42.8736 15.1288 42.4437 15.2045 41.9361 15.2045ZM42.1406 14C42.6709 14 43.1179 13.8958 43.4815 13.6875C43.849 13.4792 44.1255 13.2102 44.3111 12.8807C44.5005 12.5511 44.5952 12.2045 44.5952 11.8409V10.6136C44.5384 10.6818 44.4134 10.7443 44.2202 10.8011C44.0308 10.8542 43.8111 10.9015 43.5611 10.9432C43.3149 10.9811 43.0743 11.0152 42.8395 11.0455C42.6084 11.072 42.4209 11.0947 42.277 11.1136C41.9285 11.1591 41.6027 11.233 41.2997 11.3352C41.0005 11.4337 40.758 11.5833 40.5724 11.7841C40.3906 11.9811 40.2997 12.25 40.2997 12.5909C40.2997 13.0568 40.4721 13.4091 40.8168 13.6477C41.1652 13.8826 41.6065 14 42.1406 14ZM53.5426 15H52.0653L56.3381 3.36364H57.7926L62.0653 15H60.5881L57.1108 5.20455H57.0199L53.5426 15ZM54.0881 10.4545H60.0426V11.7045H54.0881V10.4545ZM67.2188 18.4545C66.571 18.4545 66.0142 18.3712 65.5483 18.2045C65.0824 18.0417 64.6941 17.8258 64.3835 17.5568C64.0767 17.2917 63.8324 17.0076 63.6506 16.7045L64.7188 15.9545C64.84 16.1136 64.9934 16.2955 65.179 16.5C65.3646 16.7083 65.6184 16.8883 65.9403 17.0398C66.2661 17.1951 66.6922 17.2727 67.2188 17.2727C67.9233 17.2727 68.5047 17.1023 68.9631 16.7614C69.4214 16.4205 69.6506 15.8864 69.6506 15.1591V13.3864H69.5369C69.4384 13.5455 69.2983 13.7424 69.1165 13.9773C68.9384 14.2083 68.6809 14.4148 68.3438 14.5966C68.0104 14.7746 67.5597 14.8636 66.9915 14.8636C66.2869 14.8636 65.6544 14.697 65.0938 14.3636C64.5369 14.0303 64.0956 13.5455 63.7699 12.9091C63.4479 12.2727 63.2869 11.5 63.2869 10.5909C63.2869 9.69697 63.4441 8.91856 63.7585 8.25568C64.0729 7.58901 64.5104 7.07386 65.071 6.71023C65.6316 6.3428 66.2794 6.15909 67.0142 6.15909C67.5824 6.15909 68.0331 6.25379 68.3665 6.44318C68.7036 6.62879 68.9612 6.84091 69.1392 7.07955C69.321 7.31439 69.4612 7.50758 69.5597 7.65909H69.696V6.27273H70.9915V15.25C70.9915 16 70.821 16.6098 70.4801 17.0795C70.143 17.553 69.6884 17.8996 69.1165 18.1193C68.5483 18.3428 67.9157 18.4545 67.2188 18.4545ZM67.1733 13.6591C67.7112 13.6591 68.1657 13.536 68.5369 13.2898C68.9081 13.0436 69.1903 12.6894 69.3835 12.2273C69.5767 11.7652 69.6733 11.2121 69.6733 10.5682C69.6733 9.93939 69.5786 9.38447 69.3892 8.90341C69.1998 8.42235 68.9195 8.04545 68.5483 7.77273C68.1771 7.5 67.7188 7.36364 67.1733 7.36364C66.6051 7.36364 66.1316 7.50758 65.7528 7.79545C65.3778 8.08333 65.0956 8.4697 64.9062 8.95455C64.7206 9.43939 64.6278 9.97727 64.6278 10.5682C64.6278 11.1742 64.7225 11.7102 64.9119 12.1761C65.1051 12.6383 65.3892 13.0019 65.7642 13.267C66.143 13.5284 66.6127 13.6591 67.1733 13.6591ZM73.446 15V6.27273H74.7415V7.59091H74.8324C74.9915 7.15909 75.2794 6.80871 75.696 6.53977C76.1127 6.27083 76.5824 6.13636 77.1051 6.13636C77.2036 6.13636 77.3267 6.13826 77.4744 6.14205C77.6222 6.14583 77.7339 6.15152 77.8097 6.15909V7.52273C77.7642 7.51136 77.66 7.49432 77.4972 7.47159C77.3381 7.44508 77.1695 7.43182 76.9915 7.43182C76.5672 7.43182 76.1884 7.52083 75.8551 7.69886C75.5256 7.87311 75.2642 8.11553 75.071 8.42614C74.8816 8.73295 74.7869 9.08333 74.7869 9.47727V15H73.446ZM81.9673 15.2045C81.4143 15.2045 80.9124 15.1004 80.4616 14.892C80.0109 14.6799 79.6529 14.375 79.3878 13.9773C79.1226 13.5758 78.9901 13.0909 78.9901 12.5227C78.9901 12.0227 79.0885 11.6174 79.2855 11.3068C79.4825 10.9924 79.7457 10.7462 80.0753 10.5682C80.4048 10.3902 80.7685 10.2576 81.1662 10.1705C81.5677 10.0795 81.9711 10.0076 82.3764 9.95455C82.9067 9.88636 83.3366 9.83523 83.6662 9.80114C83.9995 9.76326 84.242 9.70076 84.3935 9.61364C84.5488 9.52652 84.6264 9.375 84.6264 9.15909V9.11364C84.6264 8.55303 84.473 8.11742 84.1662 7.80682C83.8632 7.49621 83.4029 7.34091 82.7855 7.34091C82.1454 7.34091 81.6435 7.48106 81.2798 7.76136C80.9162 8.04167 80.6605 8.34091 80.5128 8.65909L79.2401 8.20455C79.4673 7.67424 79.7704 7.26136 80.1491 6.96591C80.5317 6.66667 80.9484 6.45833 81.3991 6.34091C81.8537 6.2197 82.3007 6.15909 82.7401 6.15909C83.0204 6.15909 83.3423 6.19318 83.706 6.26136C84.0734 6.32576 84.4276 6.46023 84.7685 6.66477C85.1132 6.86932 85.3991 7.17803 85.6264 7.59091C85.8537 8.00379 85.9673 8.55682 85.9673 9.25V15H84.6264V13.8182H84.5582C84.4673 14.0076 84.3158 14.2102 84.1037 14.4261C83.8916 14.642 83.6094 14.8258 83.2571 14.9773C82.9048 15.1288 82.4749 15.2045 81.9673 15.2045ZM82.1719 14C82.7022 14 83.1491 13.8958 83.5128 13.6875C83.8802 13.4792 84.1567 13.2102 84.3423 12.8807C84.5317 12.5511 84.6264 12.2045 84.6264 11.8409V10.6136C84.5696 10.6818 84.4446 10.7443 84.2514 10.8011C84.062 10.8542 83.8423 10.9015 83.5923 10.9432C83.3461 10.9811 83.1056 11.0152 82.8707 11.0455C82.6397 11.072 82.4522 11.0947 82.3082 11.1136C81.9598 11.1591 81.634 11.233 81.331 11.3352C81.0317 11.4337 80.7893 11.5833 80.6037 11.7841C80.4219 11.9811 80.331 12.25 80.331 12.5909C80.331 13.0568 80.5033 13.4091 80.848 13.6477C81.1965 13.8826 81.6378 14 82.1719 14ZM90.392 15L87.733 6.27273H89.142L91.0284 12.9545H91.1193L92.983 6.27273H94.4148L96.2557 12.9318H96.3466L98.233 6.27273H99.642L96.983 15H95.6648L93.7557 8.29545H93.6193L91.7102 15H90.392ZM103.983 15.2045C103.43 15.2045 102.928 15.1004 102.477 14.892C102.027 14.6799 101.669 14.375 101.403 13.9773C101.138 13.5758 101.006 13.0909 101.006 12.5227C101.006 12.0227 101.104 11.6174 101.301 11.3068C101.498 10.9924 101.761 10.7462 102.091 10.5682C102.42 10.3902 102.784 10.2576 103.182 10.1705C103.583 10.0795 103.987 10.0076 104.392 9.95455C104.922 9.88636 105.352 9.83523 105.682 9.80114C106.015 9.76326 106.258 9.70076 106.409 9.61364C106.564 9.52652 106.642 9.375 106.642 9.15909V9.11364C106.642 8.55303 106.489 8.11742 106.182 7.80682C105.879 7.49621 105.419 7.34091 104.801 7.34091C104.161 7.34091 103.659 7.48106 103.295 7.76136C102.932 8.04167 102.676 8.34091 102.528 8.65909L101.256 8.20455C101.483 7.67424 101.786 7.26136 102.165 6.96591C102.547 6.66667 102.964 6.45833 103.415 6.34091C103.869 6.2197 104.316 6.15909 104.756 6.15909C105.036 6.15909 105.358 6.19318 105.722 6.26136C106.089 6.32576 106.443 6.46023 106.784 6.66477C107.129 6.86932 107.415 7.17803 107.642 7.59091C107.869 8.00379 107.983 8.55682 107.983 9.25V15H106.642V13.8182H106.574C106.483 14.0076 106.331 14.2102 106.119 14.4261C105.907 14.642 105.625 14.8258 105.273 14.9773C104.92 15.1288 104.491 15.2045 103.983 15.2045ZM104.188 14C104.718 14 105.165 13.8958 105.528 13.6875C105.896 13.4792 106.172 13.2102 106.358 12.8807C106.547 12.5511 106.642 12.2045 106.642 11.8409V10.6136C106.585 10.6818 106.46 10.7443 106.267 10.8011C106.078 10.8542 105.858 10.9015 105.608 10.9432C105.362 10.9811 105.121 11.0152 104.886 11.0455C104.655 11.072 104.468 11.0947 104.324 11.1136C103.975 11.1591 103.65 11.233 103.347 11.3352C103.047 11.4337 102.805 11.5833 102.619 11.7841C102.438 11.9811 102.347 12.25 102.347 12.5909C102.347 13.0568 102.519 13.4091 102.864 13.6477C103.212 13.8826 103.653 14 104.188 14ZM111.771 3.36364V15H110.43V3.36364H111.771Z"
    fill="#0D062D"
  />
<path
    d="M59.1726 25.8182H60.4055V32.5597C60.4055 33.2557 60.2415 33.8771 59.9134 34.424C59.5885 34.9676 59.1295 35.3968 58.5362 35.7116C57.9429 36.0232 57.2469 36.179 56.4482 36.179C55.6494 36.179 54.9534 36.0232 54.3601 35.7116C53.7668 35.3968 53.3061 34.9676 52.978 34.424C52.6532 33.8771 52.4908 33.2557 52.4908 32.5597V25.8182H53.7237V32.4602C53.7237 32.9574 53.8331 33.3999 54.0518 33.7876C54.2706 34.1721 54.5821 34.4754 54.9865 34.6974C55.3942 34.9162 55.8814 35.0256 56.4482 35.0256C57.0149 35.0256 57.5021 34.9162 57.9098 34.6974C58.3175 34.4754 58.629 34.1721 58.8445 33.7876C59.0632 33.3999 59.1726 32.9574 59.1726 32.4602V25.8182ZM63.0852 36.0795C62.84 36.0795 62.6295 35.9917 62.4538 35.8161C62.2782 35.6404 62.1903 35.4299 62.1903 35.1847C62.1903 34.9394 62.2782 34.7289 62.4538 34.5533C62.6295 34.3776 62.84 34.2898 63.0852 34.2898C63.3305 34.2898 63.541 34.3776 63.7166 34.5533C63.8923 34.7289 63.9801 34.9394 63.9801 35.1847C63.9801 35.3471 63.9387 35.4962 63.8558 35.6321C63.7763 35.768 63.6686 35.8774 63.5327 35.9602C63.4001 36.0398 63.2509 36.0795 63.0852 36.0795ZM66.2447 36V25.8182H69.685C70.4838 25.8182 71.1367 25.9624 71.6438 26.2507C72.1542 26.5357 72.5321 26.9219 72.7773 27.4091C73.0226 27.8963 73.1452 28.4399 73.1452 29.0398C73.1452 29.6397 73.0226 30.1849 72.7773 30.6754C72.5354 31.166 72.1609 31.5571 71.6538 31.8487C71.1467 32.1371 70.497 32.2812 69.7049 32.2812H67.239V31.1875H69.6651C70.212 31.1875 70.6512 31.093 70.9826 30.9041C71.314 30.7152 71.5543 30.46 71.7035 30.1385C71.8559 29.8137 71.9322 29.4474 71.9322 29.0398C71.9322 28.6321 71.8559 28.2675 71.7035 27.946C71.5543 27.6245 71.3124 27.3726 70.9776 27.1903C70.6429 27.0047 70.1987 26.9119 69.6452 26.9119H67.4776V36H66.2447ZM76.1618 34.608L76.0822 35.1449C76.0259 35.5227 75.9397 35.9271 75.8237 36.358C75.711 36.7888 75.5933 37.1948 75.4707 37.576C75.3481 37.9571 75.247 38.2604 75.1674 38.4858H74.2725C74.3156 38.2737 74.372 37.9936 74.4416 37.6456C74.5112 37.2976 74.5808 36.9081 74.6504 36.4773C74.7233 36.0497 74.783 35.6122 74.8294 35.1648L74.889 34.608H76.1618ZM83.6651 25.8182V36H82.4322V25.8182H83.6651ZM87.1515 31.4062V36H85.9782V28.3636H87.1117V29.5568H87.2111C87.3901 29.169 87.6619 28.8575 88.0265 28.6222C88.391 28.3835 88.8617 28.2642 89.4384 28.2642C89.9554 28.2642 90.4078 28.3703 90.7956 28.5824C91.1834 28.7912 91.485 29.1094 91.7005 29.5369C91.9159 29.9612 92.0236 30.4981 92.0236 31.1477V36H90.8503V31.2273C90.8503 30.6274 90.6945 30.16 90.383 29.8253C90.0714 29.4872 89.6439 29.3182 89.1003 29.3182C88.7258 29.3182 88.391 29.3994 88.0961 29.5618C87.8044 29.7242 87.574 29.9612 87.405 30.2727C87.236 30.5843 87.1515 30.9621 87.1515 31.4062ZM97.0511 36.1591C96.4148 36.1591 95.853 35.9983 95.3658 35.6768C94.8786 35.352 94.4974 34.8946 94.2223 34.3047C93.9472 33.7114 93.8097 33.0104 93.8097 32.2017C93.8097 31.3996 93.9472 30.7036 94.2223 30.1136C94.4974 29.5237 94.8802 29.0679 95.3707 28.7464C95.8613 28.425 96.428 28.2642 97.071 28.2642C97.5682 28.2642 97.9609 28.3471 98.2493 28.5128C98.541 28.6752 98.763 28.8608 98.9155 29.0696C99.0713 29.2751 99.1922 29.4441 99.2784 29.5767H99.3778V25.8182H100.551V36H99.4176V34.8267H99.2784C99.1922 34.9659 99.0696 35.1416 98.9105 35.3537C98.7514 35.5625 98.5244 35.7498 98.2294 35.9155C97.9344 36.0779 97.5417 36.1591 97.0511 36.1591ZM97.2102 35.1051C97.6809 35.1051 98.0786 34.9825 98.4034 34.7372C98.7282 34.4886 98.9751 34.1456 99.1442 33.7081C99.3132 33.2673 99.3977 32.7585 99.3977 32.1818C99.3977 31.6117 99.3149 31.1129 99.1491 30.6854C98.9834 30.2545 98.7382 29.9197 98.4134 29.6811C98.0885 29.4392 97.6875 29.3182 97.2102 29.3182C96.7131 29.3182 96.2988 29.4458 95.9673 29.701C95.6392 29.9529 95.3923 30.2959 95.2266 30.7301C95.0642 31.161 94.983 31.6449 94.983 32.1818C94.983 32.7254 95.0658 33.2192 95.2315 33.6634C95.4006 34.1042 95.6491 34.4555 95.9773 34.7173C96.3087 34.9759 96.7197 35.1051 97.2102 35.1051ZM102.863 36V28.3636H104.036V36H102.863ZM103.46 27.0909C103.231 27.0909 103.034 27.013 102.868 26.8572C102.705 26.7015 102.624 26.5142 102.624 26.2955C102.624 26.0767 102.705 25.8894 102.868 25.7337C103.034 25.5779 103.231 25.5 103.46 25.5C103.688 25.5 103.884 25.5779 104.046 25.7337C104.212 25.8894 104.295 26.0767 104.295 26.2955C104.295 26.5142 104.212 26.7015 104.046 26.8572C103.884 27.013 103.688 27.0909 103.46 27.0909ZM108.432 36.179C107.948 36.179 107.509 36.0878 107.115 35.9055C106.72 35.7199 106.407 35.4531 106.175 35.1051C105.943 34.7538 105.827 34.3295 105.827 33.8324C105.827 33.3949 105.913 33.0402 106.086 32.7685C106.258 32.4934 106.488 32.2779 106.777 32.1222C107.065 31.9664 107.383 31.8504 107.731 31.7741C108.083 31.6946 108.436 31.6316 108.79 31.5852C109.254 31.5256 109.631 31.4808 109.919 31.451C110.211 31.4179 110.423 31.3632 110.555 31.2869C110.691 31.2107 110.759 31.0781 110.759 30.8892V30.8494C110.759 30.3589 110.625 29.9777 110.356 29.706C110.091 29.4342 109.689 29.2983 109.148 29.2983C108.588 29.2983 108.149 29.4209 107.831 29.6662C107.513 29.9115 107.289 30.1733 107.16 30.4517L106.046 30.054C106.245 29.59 106.51 29.2287 106.841 28.9702C107.176 28.7083 107.541 28.526 107.935 28.4233C108.333 28.3172 108.724 28.2642 109.108 28.2642C109.354 28.2642 109.635 28.294 109.954 28.3537C110.275 28.41 110.585 28.5277 110.883 28.7067C111.185 28.8857 111.435 29.1558 111.634 29.517C111.833 29.8783 111.932 30.3622 111.932 30.9688V36H110.759V34.9659H110.699C110.62 35.1316 110.487 35.3089 110.302 35.4979C110.116 35.6868 109.869 35.8475 109.561 35.9801C109.253 36.1127 108.876 36.179 108.432 36.179ZM108.611 35.125C109.075 35.125 109.466 35.0339 109.785 34.8516C110.106 34.6693 110.348 34.4339 110.51 34.1456C110.676 33.8572 110.759 33.554 110.759 33.2358V32.1619C110.709 32.2216 110.6 32.2763 110.431 32.326C110.265 32.3724 110.073 32.4138 109.854 32.4503C109.639 32.4834 109.428 32.5133 109.223 32.5398C109.021 32.563 108.857 32.5829 108.731 32.5994C108.426 32.6392 108.141 32.7038 107.876 32.7933C107.614 32.8795 107.402 33.0104 107.239 33.1861C107.08 33.3584 107.001 33.5937 107.001 33.892C107.001 34.2997 107.151 34.608 107.453 34.8168C107.758 35.0223 108.144 35.125 108.611 35.125Z"
    fill="#787486"
  />
</svg>
